<mxfile host="app.diagrams.net" agent="Mozilla/5.0 (Windows NT 10.0; Win64; x64) AppleWebKit/537.36 (KHTML, like Gecko) Chrome/135.0.0.0 Safari/537.36 Edg/135.0.0.0" version="26.2.14">
  <diagram name="Page-1" id="Wcw3c6i6-yg6ZOlBsxf1">
    <mxGraphModel grid="1" page="1" gridSize="10" guides="1" tooltips="1" connect="1" arrows="1" fold="1" pageScale="1" pageWidth="850" pageHeight="1100" math="0" shadow="0">
      <root>
        <mxCell id="0" />
        <mxCell id="1" parent="0" />
        <mxCell id="NT8N5n9WwluMoNoG3Nx5-2" value="Declarations&lt;div&gt;num employee count (10) = 0-10&lt;/div&gt;&lt;div&gt;Gross_Pay= $30.00 an hour&lt;/div&gt;&lt;div&gt;Overtime Pay= $45.00 an hour&lt;/div&gt;&lt;div&gt;Gross_Pay = (hours worked * hourly rate)&lt;/div&gt;&lt;div&gt;Taxes = (Gross_Pay * 0.15%)&lt;/div&gt;&lt;div&gt;net pay = (Gross_Pay - Taxes)&lt;/div&gt;" style="whiteSpace=wrap;html=1;aspect=fixed;" vertex="1" parent="1">
          <mxGeometry x="630" y="110" width="220" height="220" as="geometry" />
        </mxCell>
        <mxCell id="NT8N5n9WwluMoNoG3Nx5-5" value="" style="edgeStyle=orthogonalEdgeStyle;rounded=0;orthogonalLoop=1;jettySize=auto;html=1;" edge="1" parent="1" source="NT8N5n9WwluMoNoG3Nx5-3">
          <mxGeometry relative="1" as="geometry">
            <mxPoint x="190" y="230" as="targetPoint" />
          </mxGeometry>
        </mxCell>
        <mxCell id="NT8N5n9WwluMoNoG3Nx5-3" value="Start" style="ellipse;whiteSpace=wrap;html=1;" vertex="1" parent="1">
          <mxGeometry x="130" y="60" width="120" height="80" as="geometry" />
        </mxCell>
        <mxCell id="NT8N5n9WwluMoNoG3Nx5-11" value="" style="edgeStyle=orthogonalEdgeStyle;rounded=0;orthogonalLoop=1;jettySize=auto;html=1;" edge="1" parent="1" target="NT8N5n9WwluMoNoG3Nx5-10">
          <mxGeometry relative="1" as="geometry">
            <mxPoint x="190" y="290" as="sourcePoint" />
          </mxGeometry>
        </mxCell>
        <mxCell id="NT8N5n9WwluMoNoG3Nx5-13" value="" style="edgeStyle=orthogonalEdgeStyle;rounded=0;orthogonalLoop=1;jettySize=auto;html=1;" edge="1" parent="1" source="NT8N5n9WwluMoNoG3Nx5-10" target="NT8N5n9WwluMoNoG3Nx5-12">
          <mxGeometry relative="1" as="geometry" />
        </mxCell>
        <mxCell id="NT8N5n9WwluMoNoG3Nx5-10" value="employee details = (name, hours worked, rate)&lt;div&gt;num employee counts = 0,0,0,0,0,0,0,0,0,0&lt;/div&gt;" style="whiteSpace=wrap;html=1;" vertex="1" parent="1">
          <mxGeometry x="125" y="370" width="130" height="80" as="geometry" />
        </mxCell>
        <mxCell id="NT8N5n9WwluMoNoG3Nx5-14" style="edgeStyle=orthogonalEdgeStyle;rounded=0;orthogonalLoop=1;jettySize=auto;html=1;" edge="1" parent="1">
          <mxGeometry relative="1" as="geometry">
            <mxPoint x="190" y="470" as="targetPoint" />
            <mxPoint x="190" y="470" as="sourcePoint" />
          </mxGeometry>
        </mxCell>
        <mxCell id="NT8N5n9WwluMoNoG3Nx5-17" value="" style="edgeStyle=orthogonalEdgeStyle;rounded=0;orthogonalLoop=1;jettySize=auto;html=1;" edge="1" parent="1" source="NT8N5n9WwluMoNoG3Nx5-12" target="NT8N5n9WwluMoNoG3Nx5-16">
          <mxGeometry relative="1" as="geometry" />
        </mxCell>
        <mxCell id="NT8N5n9WwluMoNoG3Nx5-12" value="get ready ()" style="whiteSpace=wrap;html=1;" vertex="1" parent="1">
          <mxGeometry x="125" y="530" width="130" height="40" as="geometry" />
        </mxCell>
        <mxCell id="NT8N5n9WwluMoNoG3Nx5-19" value="YES" style="edgeStyle=orthogonalEdgeStyle;rounded=0;orthogonalLoop=1;jettySize=auto;html=1;" edge="1" parent="1" source="NT8N5n9WwluMoNoG3Nx5-16" target="NT8N5n9WwluMoNoG3Nx5-18">
          <mxGeometry relative="1" as="geometry" />
        </mxCell>
        <mxCell id="NT8N5n9WwluMoNoG3Nx5-21" value="NO" style="edgeStyle=orthogonalEdgeStyle;rounded=0;orthogonalLoop=1;jettySize=auto;html=1;" edge="1" parent="1">
          <mxGeometry relative="1" as="geometry">
            <mxPoint x="189.5" y="710" as="sourcePoint" />
            <mxPoint x="189.5" y="800" as="targetPoint" />
          </mxGeometry>
        </mxCell>
        <mxCell id="NT8N5n9WwluMoNoG3Nx5-16" value="" style="rhombus;whiteSpace=wrap;html=1;" vertex="1" parent="1">
          <mxGeometry x="150" y="630" width="80" height="80" as="geometry" />
        </mxCell>
        <mxCell id="NT8N5n9WwluMoNoG3Nx5-18" value="" style="rounded=1;whiteSpace=wrap;html=1;" vertex="1" parent="1">
          <mxGeometry x="290" y="640" width="120" height="60" as="geometry" />
        </mxCell>
        <mxCell id="NT8N5n9WwluMoNoG3Nx5-22" value="housekeeping" style="swimlane;fontStyle=0;childLayout=stackLayout;horizontal=1;startSize=30;horizontalStack=0;resizeParent=1;resizeParentMax=0;resizeLast=0;collapsible=1;marginBottom=0;whiteSpace=wrap;html=1;" vertex="1" parent="1">
          <mxGeometry x="140" y="230" width="120" height="60" as="geometry" />
        </mxCell>
        <mxCell id="NT8N5n9WwluMoNoG3Nx5-23" value="employee payroll data (10)" style="text;strokeColor=none;fillColor=none;align=left;verticalAlign=middle;spacingLeft=4;spacingRight=4;overflow=hidden;points=[[0,0.5],[1,0.5]];portConstraint=eastwest;rotatable=0;whiteSpace=wrap;html=1;" vertex="1" parent="NT8N5n9WwluMoNoG3Nx5-22">
          <mxGeometry y="30" width="120" height="30" as="geometry" />
        </mxCell>
      </root>
    </mxGraphModel>
  </diagram>
</mxfile>
